<svg xmlns="http://www.w3.org/2000/svg" xml:space="preserve" id="Capa_1" width="800" height="800" fill="#000" viewBox="0 0 48.956 48.955"><path d="m24.698 19.041 4.338 4.336-1.065 1.066-4.338-4.336zm8.128-4.772a2.37 2.37 0 0 0-3.354 0l-3.604 3.603 4.338 4.337 3.604-3.604a2.37 2.37 0 0 0 0-3.354zM.696 43.043a2.37 2.37 0 0 0 0 3.354l.98.98a2.37 2.37 0 0 0 3.354 0l21.655-21.655-4.337-4.339zm42.012-29.165-.803 2.113-2.112.802 2.112.804.803 2.112.803-2.112 2.112-.804-2.112-.802zm-6.75-9.16L34.503.883 33.05 4.718l-3.836 1.455 3.836 1.455 1.453 3.836 1.455-3.836 3.835-1.455zm10.731 2.138-.857-2.267-.857 2.267-2.266.857 2.266.86.857 2.265.857-2.265 2.267-.86z"/></svg>